<svg xmlns="http://www.w3.org/2000/svg" viewBox="0 0 48 48" fill="none">
  <!-- Main circular background -->
  <circle cx="24" cy="24" r="22" fill="url(#gradient)" stroke="#1e40af" stroke-width="2"/>
  
  <!-- Tab container/browser window -->
  <rect x="6" y="12" width="36" height="24" rx="3" fill="#f8fafc" stroke="#cbd5e1" stroke-width="1"/>
  
  <!-- Three grouped tabs -->
  <rect x="8" y="14" width="10" height="7" rx="2" fill="#3b82f6"/>
  <rect x="20" y="14" width="10" height="7" rx="2" fill="#10b981"/>
  <rect x="32" y="14" width="8" height="7" rx="2" fill="#f59e0b"/>
  
  <!-- Tab content lines -->
  <rect x="9" y="24" width="8" height="1" rx="0.5" fill="#94a3b8"/>
  <rect x="9" y="26" width="6" height="1" rx="0.5" fill="#cbd5e1"/>
  <rect x="21" y="24" width="8" height="1" rx="0.5" fill="#94a3b8"/>
  <rect x="21" y="26" width="5" height="1" rx="0.5" fill="#cbd5e1"/>
  <rect x="33" y="24" width="6" height="1" rx="0.5" fill="#94a3b8"/>
  <rect x="33" y="26" width="5" height="1" rx="0.5" fill="#cbd5e1"/>
  
  <!-- AI indicator -->
  <circle cx="24" cy="40" r="5" fill="#8b5cf6" stroke="#ffffff" stroke-width="1"/>
  
  <!-- Neural network nodes -->
  <circle cx="22" cy="38" r="0.8" fill="#ffffff"/>
  <circle cx="26" cy="38" r="0.8" fill="#ffffff"/>
  <circle cx="24" cy="42" r="0.8" fill="#ffffff"/>
  
  <!-- Neural connections -->
  <path d="M22 39 L24 41" stroke="#ffffff" stroke-width="0.8" opacity="0.8"/>
  <path d="M26 39 L24 41" stroke="#ffffff" stroke-width="0.8" opacity="0.8"/>
  
  <!-- Sparkle effects -->
  <path d="M12 9 L13 10.5 L14.5 9.5 L13 11 L12 9Z" fill="#f59e0b" opacity="0.8"/>
  <path d="M37 11 L37.5 12 L38.5 11.5 L37.5 13 L37 11Z" fill="#3b82f6" opacity="0.8"/>
  <circle cx="40" cy="20" r="1" fill="#10b981" opacity="0.7"/>
  <circle cx="6" cy="28" r="0.8" fill="#8b5cf6" opacity="0.7"/>
  
  <defs>
    <linearGradient id="gradient" x1="0%" y1="0%" x2="100%" y2="100%">
      <stop offset="0%" style="stop-color:#dbeafe;stop-opacity:1" />
      <stop offset="100%" style="stop-color:#bfdbfe;stop-opacity:1" />
    </linearGradient>
  </defs>
</svg>
