<svg xmlns="http://www.w3.org/2000/svg" viewBox="0 0 128 128" fill="none">
  <!-- Main circular background -->
  <circle cx="64" cy="64" r="58" fill="url(#gradient)" stroke="#1e40af" stroke-width="4"/>
  
  <!-- Tab container/browser window -->
  <rect x="18" y="32" width="92" height="64" rx="8" fill="#f8fafc" stroke="#cbd5e1" stroke-width="2"/>
  
  <!-- Three grouped tabs -->
  <rect x="24" y="38" width="26" height="18" rx="4" fill="#3b82f6"/>
  <rect x="54" y="38" width="26" height="18" rx="4" fill="#10b981"/>
  <rect x="84" y="38" width="20" height="18" rx="4" fill="#f59e0b"/>
  
  <!-- Tab content lines -->
  <rect x="27" y="64" width="20" height="3" rx="1.5" fill="#94a3b8"/>
  <rect x="27" y="70" width="16" height="2" rx="1" fill="#cbd5e1"/>
  <rect x="57" y="64" width="20" height="3" rx="1.5" fill="#94a3b8"/>
  <rect x="57" y="70" width="14" height="2" rx="1" fill="#cbd5e1"/>
  <rect x="87" y="64" width="14" height="3" rx="1.5" fill="#94a3b8"/>
  <rect x="87" y="70" width="12" height="2" rx="1" fill="#cbd5e1"/>
  
  <!-- AI indicator - neural network style -->
  <circle cx="64" cy="108" r="14" fill="#8b5cf6" stroke="#ffffff" stroke-width="3"/>
  
  <!-- Neural network nodes -->
  <circle cx="58" cy="103" r="2" fill="#ffffff"/>
  <circle cx="70" cy="103" r="2" fill="#ffffff"/>
  <circle cx="64" cy="113" r="2" fill="#ffffff"/>
  <circle cx="60" cy="109" r="1.5" fill="#ffffff" opacity="0.7"/>
  <circle cx="68" cy="109" r="1.5" fill="#ffffff" opacity="0.7"/>
  
  <!-- Neural connections -->
  <path d="M58 105 L64 111" stroke="#ffffff" stroke-width="1.5" opacity="0.8"/>
  <path d="M70 105 L64 111" stroke="#ffffff" stroke-width="1.5" opacity="0.8"/>
  
  <!-- Sparkle effects for AI magic -->
  <path d="M32 24 L34 28 L38 26 L34 30 L32 24Z" fill="#f59e0b" opacity="0.8"/>
  <path d="M98 30 L99 32 L101 31 L99 34 L98 30Z" fill="#3b82f6" opacity="0.8"/>
  <circle cx="108" cy="55" r="2.5" fill="#10b981" opacity="0.7"/>
  <circle cx="16" cy="75" r="2" fill="#8b5cf6" opacity="0.7"/>
  
  <defs>
    <linearGradient id="gradient" x1="0%" y1="0%" x2="100%" y2="100%">
      <stop offset="0%" style="stop-color:#dbeafe;stop-opacity:1" />
      <stop offset="100%" style="stop-color:#bfdbfe;stop-opacity:1" />
    </linearGradient>
  </defs>
</svg>
